<?xml version="1.0" encoding="UTF-8"?>
<svg width="82px" height="82px" viewBox="0 0 82 82" version="1.1" xmlns="http://www.w3.org/2000/svg" xmlns:xlink="http://www.w3.org/1999/xlink">
    <!-- Generator: Sketch 53.2 (72643) - https://sketchapp.com -->
    <title>back</title>
    <desc>Created with Sketch.</desc>
    <g id="Page-1" stroke="none" stroke-width="1" fill="none" fill-rule="evenodd">
        <g id="01_Home" transform="translate(-934.000000, -798.000000)">
            <g id="intro" transform="translate(0.000000, 799.000000)">
                <g id="1" transform="translate(935.000000, 0.000000)">
                    <g id="back">
                        <circle id="Oval" stroke="#5191FA" cx="40" cy="40" r="40"></circle>
                        <g id="customer-service" transform="translate(23.000000, 22.000000)" fill="#5191FA" fill-rule="nonzero">
                            <path d="M21.8602158,13.5535519 C21.8478686,13.4153605 21.7809845,13.2877793 21.6743518,13.1990168 C21.5677191,13.1102544 21.4301219,13.0676227 21.2919834,13.0805477 L13.6525892,13.7788133 L10.1467718,10.2684398 C9.94273121,10.0641105 9.61168202,10.0638765 9.40735271,10.267917 C9.20302341,10.4719576 9.20278932,10.8030068 9.40682988,11.0073361 L13.0860747,14.6912863 C13.1840901,14.7895201 13.3171644,14.8447169 13.4559336,14.8446971 C13.4717676,14.8446971 13.4876515,14.8439751 13.5035851,14.8425311 L21.3872116,14.1218589 C21.5252991,14.1092236 21.6527111,14.0422493 21.7414171,13.9356704 C21.8301231,13.8290916 21.8728564,13.6916389 21.8602158,13.5535519 Z" id="Path"></path>
                            <path d="M33.3301743,25.168556 C34.5585493,22.8098288 34.4875905,19.9851618 33.142332,17.6910871 C32.0016079,15.7094844 30.0279747,14.3480771 27.7704149,13.9855519 C27.7704149,13.975917 27.7704149,13.9661328 27.7704149,13.9564979 C27.7704149,6.29342739 21.5420415,0.058406639 13.8862905,0.058406639 C6.23053942,0.058406639 0.00246473029,6.29312863 0.00246473029,13.9564979 C0.00246473029,21.6198672 6.23083817,27.8545145 13.8865892,27.8545145 C14.8477546,27.8548717 15.8063803,27.7558304 16.7471701,27.558971 C16.8273617,27.9641565 17.1833386,28.2557632 17.5963817,28.2546224 L19.3625477,28.2546224 L19.3625477,29.5934938 C18.4923074,29.6097255 17.7999966,30.328353 17.8162283,31.1985934 C17.8324599,32.0688337 18.5510875,32.7611445 19.4213278,32.7449129 L19.4394772,32.7449129 L22.553029,32.6972614 C22.7003802,32.6949833 22.8398705,32.6303944 22.9369295,32.5195021 C23.27161,32.5178589 23.6240664,32.5163651 23.9322324,32.5150207 L23.9347718,32.5150207 C24.2060245,32.5145447 24.4426573,32.6990684 24.5083071,32.9622573 L25.1580996,35.5464896 C25.216533,35.7788772 25.4254656,35.9417942 25.6650871,35.9418174 L32.8976515,35.9418174 C33.0600239,35.9418032 33.2131734,35.8663482 33.3121256,35.737611 C33.4110777,35.6088737 33.4445994,35.4414684 33.4028465,35.284556 C33.3907469,35.2393693 32.2014025,30.7337676 32.4634855,27.9177012 C32.5231618,27.2782905 33.1004315,25.7391784 33.3301743,25.168556 Z M27.2120415,26.8824398 L27.1950124,26.8824398 C26.2013357,26.8801601 25.3926481,26.0822701 25.3770124,25.0887137 L25.3730539,24.7962324 C25.3665379,24.3127228 25.5528828,23.846532 25.8908881,23.5007339 C26.2288935,23.1549357 26.6907165,22.958015 27.174249,22.9535104 L27.1913527,22.9535104 C28.1849708,22.9559128 28.9935349,23.7538125 29.0091286,24.7473112 L29.0130871,25.0397178 C29.0195631,25.5232285 28.8331949,25.9894075 28.495182,26.335199 C28.1571691,26.6809906 27.6953503,26.8779152 27.2118174,26.8824398 L27.2120415,26.8824398 Z M1.04810788,13.9564979 C1.04810788,6.86965145 6.80743568,1.10404979 13.8865892,1.10404979 C20.9440083,1.10404979 26.6889959,6.83439834 26.724249,13.8913693 C26.6901162,13.8905477 26.6562075,13.8893527 26.6217759,13.8889046 C26.5904813,13.8889046 26.5593361,13.8883817 26.5281162,13.8883817 C22.1293309,13.888052 18.4968717,17.3248906 18.2539419,21.7169627 C18.2458008,21.851029 18.2422905,22.8372946 18.2411701,23.2642158 L17.0365145,26.418249 C16.0065844,26.677964 14.9484618,26.8091694 13.8862905,26.8088714 C6.80743568,26.8088714 1.04810788,21.0433444 1.04810788,13.9564979 Z M19.4252116,31.699195 C19.1341936,31.7006966 18.8961189,31.4678097 18.8912095,31.1768293 C18.8863002,30.8858488 19.1163833,30.6450633 19.4072863,30.6367469 L21.999361,30.6367469 L22.0142988,31.65961 L19.4252116,31.699195 Z M20.4078174,29.5911037 L20.4078174,27.7319502 C20.4078174,27.4432038 20.1737422,27.2091286 19.8849959,27.2091286 L17.8541328,27.2091286 L19.2518589,23.5478838 C19.2744402,23.4887305 19.2861062,23.4259722 19.2862905,23.3626556 C19.2878589,22.666556 19.2923402,21.8753776 19.2975685,21.7770871 C19.4994926,17.9341831 22.6792505,14.9246145 26.527444,14.9341743 C26.5547054,14.9341743 26.5827137,14.9341743 26.6099751,14.9346971 C26.6222988,14.9346971 26.6346224,14.9353693 26.6468714,14.9355934 L26.6468714,21.96 C25.2858544,22.2236448 24.3090637,23.4242323 24.3277842,24.8104232 L24.3317427,25.1029046 C24.3527819,26.4363393 25.2891051,27.5797889 26.5921992,27.8634025 L26.5979502,28.4763734 C26.6086026,29.6264038 25.685294,30.5674986 24.5352697,30.5787884 L23.0441079,30.5879751 L23.0370871,30.1063817 C23.0330035,29.8205563 22.8001201,29.5909999 22.5142656,29.591029 L20.4078174,29.5911037 Z M32.3914108,24.7075021 C32.3835569,24.7223882 32.3764769,24.73767 32.3701992,24.7532863 C32.2822158,24.9706307 31.5078423,26.903278 31.4225477,27.8203817 C31.2027386,30.1815187 31.8980913,33.4972531 32.2291867,34.8959502 L26.072888,34.8959502 L25.5223568,32.706971 C25.4024808,32.2281284 25.0724775,31.8291868 24.6245975,31.621668 C26.3200236,31.5628331 27.6593533,30.1629591 27.6432199,28.4665892 L27.637917,27.8940996 C29.046163,27.6733379 30.0778993,26.4508447 30.0588797,25.025527 L30.0549212,24.7331203 C30.0331981,23.3607138 29.0431343,22.1956347 27.6922158,21.9527552 L27.6922158,15.0329129 C29.6046688,15.367686 31.2699548,16.5338705 32.2384481,18.2165975 C33.4068653,20.2086573 33.4646945,22.6626151 32.3914108,24.7075021 L32.3914108,24.7075021 Z" id="Shape"></path>
                        </g>
                    </g>
                </g>
            </g>
        </g>
    </g>
</svg>