<?xml version="1.0" encoding="UTF-8"?>
<svg width="82px" height="82px" viewBox="0 0 82 82" version="1.1" xmlns="http://www.w3.org/2000/svg" xmlns:xlink="http://www.w3.org/1999/xlink">
    <!-- Generator: Sketch 53.2 (72643) - https://sketchapp.com -->
    <title>back</title>
    <desc>Created with Sketch.</desc>
    <g id="Page-1" stroke="none" stroke-width="1" fill="none" fill-rule="evenodd">
        <g id="01_Home" transform="translate(-134.000000, -798.000000)">
            <g id="intro" transform="translate(0.000000, 799.000000)">
                <g id="1" transform="translate(135.000000, 0.000000)">
                    <g id="back">
                        <circle id="Oval" stroke="#5191FA" cx="40" cy="40" r="40"></circle>
                        <path d="M37.5,58 C32.6910095,58 28.1715088,56.1279297 24.7709656,52.7273865 C24.4784546,52.4348755 24.4784546,51.9594422 24.7709656,51.6669312 C25.0634766,51.3744201 25.5389099,51.3744201 25.8314209,51.6669312 C28.9485168,54.7840271 33.0931091,56.5000916 37.5,56.5000916 C41.9068909,56.5000916 46.0501098,54.7840271 49.1669312,51.6669312 C52.2840271,48.5501098 54.0000916,44.4068909 54.0000916,40 C54.0000916,35.5931091 52.2840271,31.4485168 49.1669312,28.3314209 C46.0501098,25.2145996 41.9068909,23.4999084 37.5,23.4999084 C33.0931091,23.4999084 28.9498902,25.2159729 25.8330688,28.3330688 C25.5405578,28.6255799 25.0651245,28.6255799 24.7726135,28.3330688 C24.4801025,28.0405578 24.4801025,27.5651245 24.7726135,27.2726135 C28.1728821,23.8720703 32.6923828,22 37.5,22 C42.3089905,22 46.8284912,23.8720703 50.2290344,27.2726135 C53.6295777,30.6728821 55.5,35.1923828 55.5,40 C55.5,44.8076172 53.6279297,49.3271179 50.2273865,52.7273865 C46.8271179,56.1279297 42.3076172,58 37.5,58 L37.5,58 Z" id="Path" fill="#5191FA" fill-rule="nonzero"></path>
                        <path d="M30.75,29.5000916 L24.7500916,29.5000916 C24.335907,29.5000916 24,29.1639099 24,28.75 L24,22.7500916 C24,22.335907 24.335907,22 24.7500916,22 C25.1640015,22 25.4999084,22.335907 25.4999084,22.7500916 L25.4999084,27.9999084 L30.75,27.9999084 C31.1639099,27.9999084 31.5000916,28.3360901 31.5000916,28.75 C31.5000916,29.1639099 31.1639099,29.5000916 30.75,29.5000916 Z" id="Path" fill="#5191FA" fill-rule="nonzero"></path>
                    </g>
                </g>
            </g>
        </g>
    </g>
</svg>