<?xml version="1.0" encoding="UTF-8"?>
<svg width="82px" height="82px" viewBox="0 0 82 82" version="1.1" xmlns="http://www.w3.org/2000/svg" xmlns:xlink="http://www.w3.org/1999/xlink">
    <!-- Generator: Sketch 53.2 (72643) - https://sketchapp.com -->
    <title>Group 11</title>
    <desc>Created with Sketch.</desc>
    <g id="Page-1" stroke="none" stroke-width="1" fill="none" fill-rule="evenodd">
        <g id="01_Home" transform="translate(-534.000000, -798.000000)">
            <g id="intro" transform="translate(0.000000, 799.000000)">
                <g id="1" transform="translate(535.000000, 0.000000)">
                    <g id="Group-11">
                        <g id="back" stroke="#5191FA">
                            <circle id="Oval" cx="40" cy="40" r="40"></circle>
                        </g>
                        <g id="price-tag" transform="translate(22.000000, 22.000000)" fill="#5191FA" fill-rule="nonzero">
                            <path d="M35.6298947,7.00357895 L28.6098947,0 L19.7652632,0 L16.2795789,3.47431579 C7.61242105,2.75115789 0.624,7.62694737 0.526105263,7.69705263 C0.242526316,7.89915789 0.176210526,8.29389474 0.379578947,8.57810526 C0.502736842,8.74989474 0.696631579,8.84210526 0.893684211,8.84210526 C1.02063158,8.84210526 1.14884211,8.80357895 1.26,8.724 C1.34778947,8.66147368 7.39389474,4.44442105 15.0795789,4.66989474 L3.78884211,15.924 L3.79389474,15.9290526 L0,19.7134737 L15.8816842,35.6298947 L22.2227368,29.3058947 C23.5250526,29.988 25.0402105,30.3233684 26.5389474,30.3227368 C28.7501053,30.3227368 30.9189474,29.604 32.2869474,28.236 C36.9397895,23.5825263 35.0930526,18.4781053 34.4614737,17.0993684 L35.6292632,15.9341053 L35.6292632,7.00357895 L35.6298947,7.00357895 Z M28.0882105,1.26315789 L34.3667368,7.52778947 L34.3667368,15.4098947 L22.0269474,27.7092632 C19.4475789,25.86 18.6625263,22.3901053 19.8208421,17.8402105 C19.9073684,17.5023158 19.7027368,17.1581053 19.3648421,17.0722105 C19.0256842,16.9818947 18.6833684,17.1903158 18.5968421,17.5282105 C16.9616842,23.9494737 19.1589474,27.1162105 21.1225263,28.6105263 L19.6743158,30.0543158 L5.58063158,15.9309474 L16.7469474,4.79368421 C19.3983158,5.09684211 22.1981053,5.97221053 24.9865263,7.74126316 C24.9618947,7.88084211 24.9435789,8.02294737 24.9435789,8.16947368 C24.9435789,9.54 26.0583158,10.6547368 27.4288421,10.6547368 C28.7993684,10.6547368 29.9147368,9.54 29.9147368,8.16947368 C29.9147368,6.79894737 28.7993684,5.68421053 27.4288421,5.68421053 C26.6608421,5.68421053 25.9818947,6.04168421 25.5258947,6.59115789 C22.9433684,4.97621053 20.3551579,4.07621053 17.8724211,3.672 L20.2869474,1.26315789 L28.0882105,1.26315789 Z M26.4088421,8.71578947 C26.688,8.92547368 27.084,8.86926316 27.2924211,8.58947368 C27.5021053,8.31094737 27.4452632,7.91494737 27.1661053,7.70589474 C26.9709474,7.56 26.7751579,7.43115789 26.58,7.29410526 C26.8004211,7.08 27.0991579,6.94736842 27.4288421,6.94736842 C28.1027368,6.94736842 28.6515789,7.49557895 28.6515789,8.17010526 C28.6515789,8.84336842 28.1033684,9.39221053 27.4288421,9.39221053 C26.9216842,9.39221053 26.4865263,9.08147368 26.3014737,8.64063158 C26.3374737,8.66652632 26.3734737,8.68863158 26.4088421,8.71578947 Z M1.78610526,19.716 L4.68631579,16.8233684 L18.7844211,30.9517895 L15.8842105,33.8444211 L1.78610526,19.716 Z M31.3938947,27.3429474 C29.7669474,28.9686316 26.1075789,29.7101053 23.1644211,28.3667368 L33.5065263,18.0517895 C34.1349474,19.6155789 35.1517895,23.5844211 31.3938947,27.3429474 Z" id="Shape"></path>
                        </g>
                    </g>
                </g>
            </g>
        </g>
    </g>
</svg>